<?xml version="1.0" encoding="utf-8"?>
<!-- Generator: Adobe Illustrator 15.1.0, SVG Export Plug-In . SVG Version: 6.00 Build 0)  -->
<!DOCTYPE svg PUBLIC "-//W3C//DTD SVG 1.1//EN" "http://www.w3.org/Graphics/SVG/1.1/DTD/svg11.dtd">
<svg version="1.1" id="Capa_1" xmlns="http://www.w3.org/2000/svg" xmlns:xlink="http://www.w3.org/1999/xlink" x="0px" y="0px"
	 width="256.059px" height="256.059px" viewBox="0 0 256.059 256.059" enable-background="new 0 0 256.059 256.059"
	 xml:space="preserve">
<rect x="-4.47" y="0" fill="#085F90" width="260.529" height="256.059"/>
<g enable-background="new    ">
	<path fill="#FFFFFF" d="M139.291,167.054h-20.891V122.33c0-5.524-0.925-9.668-2.773-12.433c-1.85-2.762-4.76-4.144-8.732-4.144
		c-5.342,0-9.224,1.964-11.644,5.891c-2.421,3.929-3.63,10.389-3.63,19.383v36.026H70.731V90.481h15.958l2.809,9.794h1.165
		c2.055-3.516,5.021-6.267,8.903-8.253c3.88-1.985,8.333-2.979,13.356-2.979c11.46,0,19.223,3.745,23.287,11.231h1.85
		c2.055-3.562,5.078-6.322,9.074-8.287c3.995-1.963,8.504-2.944,13.527-2.944c8.675,0,15.238,2.227,19.69,6.678
		c4.451,4.452,6.678,11.587,6.678,21.404v49.93H166.07V122.33c0-5.524-0.924-9.668-2.772-12.433
		c-1.851-2.762-4.76-4.144-8.732-4.144c-5.114,0-8.938,1.827-11.473,5.479c-2.534,3.653-3.801,9.452-3.801,17.396V167.054
		L139.291,167.054z"/>
</g>
</svg>
